<svg width="294" height="116" viewBox="0 0 294 116" fill="none" xmlns="http://www.w3.org/2000/svg">
<path d="M4.07 65.8972H36.795V74.9722H16.225V80.1972H33.825V88.8872H16.225V94.6622H37.18V103.737H4.07V65.8972ZM56.7974 74.0372C60.6841 74.0372 63.9657 74.8072 66.6424 76.3472C69.3557 77.8506 70.7124 80.1972 70.7124 83.3872H60.5374C60.5374 82.3239 60.0607 81.5722 59.1074 81.1322C58.4474 80.7656 57.6224 80.5822 56.6324 80.5822C53.9924 80.5822 52.6724 81.2056 52.6724 82.4522C52.6724 83.1489 53.1307 83.6439 54.0474 83.9372C54.9641 84.2306 56.4674 84.5422 58.5574 84.8722C61.1241 85.2389 63.2691 85.6789 64.9924 86.1922C66.7157 86.6689 68.2191 87.5489 69.5024 88.8322C70.7857 90.0789 71.4274 91.8389 71.4274 94.1122C71.4274 97.8156 70.0341 100.456 67.2474 102.032C64.4974 103.609 60.8857 104.397 56.4124 104.397C53.8457 104.397 51.4257 104.049 49.1524 103.352C46.879 102.619 45.0274 101.501 43.5974 99.9972C42.1674 98.4939 41.4524 96.5872 41.4524 94.2772H51.6274V94.4972C51.664 95.7439 52.1774 96.6239 53.1674 97.1372C54.194 97.6139 55.2757 97.8522 56.4124 97.8522C59.4557 97.8522 60.9774 97.1372 60.9774 95.7072C60.9774 94.9739 60.5007 94.4422 59.5474 94.1122C58.5941 93.7822 57.0357 93.4339 54.8724 93.0672C52.2691 92.6272 50.1241 92.1506 48.4374 91.6372C46.7874 91.1239 45.339 90.2622 44.0924 89.0522C42.8457 87.8056 42.2224 86.0822 42.2224 83.8822C42.2224 80.3256 43.5607 77.7956 46.2374 76.2922C48.9507 74.7889 52.4707 74.0372 56.7974 74.0372ZM95.9754 74.6972V82.1222H89.8154V93.1772C89.8154 94.4972 90.0354 95.4689 90.4754 96.0922C90.9154 96.6789 91.7221 96.9722 92.8954 96.9722H95.9754V103.407C95.0954 103.701 93.9588 103.939 92.5654 104.122C91.1721 104.306 89.9621 104.397 88.9354 104.397C85.7088 104.397 83.2154 103.811 81.4554 102.637C79.7321 101.464 78.8704 99.4656 78.8704 96.6422V82.1222H74.8004V74.6972H79.3104L81.6754 65.8972H89.8154V74.6972H95.9754ZM101.439 71.2872V63.8622H112.384V71.2872H101.439ZM101.439 103.737V74.6972H112.384V103.737H101.439ZM152.644 103.737V90.0972C152.644 88.4106 152.699 86.6872 152.809 84.9272C152.956 83.1306 153.103 81.6272 153.249 80.4172C153.396 79.2072 153.488 78.4372 153.524 78.1072H153.304L146.319 103.737H136.804L129.764 78.1622H129.544C129.581 78.4922 129.673 79.2622 129.819 80.4722C130.003 81.6456 130.168 83.1306 130.314 84.9272C130.461 86.6872 130.534 88.4106 130.534 90.0972V103.737H119.369V65.8972H136.529L142.249 87.7322H142.469L148.134 65.8972H164.689V103.737H152.644ZM186.323 74.0372C191.419 74.0372 195.416 75.3389 198.313 77.9422C201.246 80.5089 202.713 84.2672 202.713 89.2172C202.713 94.1672 201.246 97.9439 198.313 100.547C195.416 103.114 191.419 104.397 186.323 104.397C181.226 104.397 177.229 103.114 174.333 100.547C171.436 97.9806 169.988 94.2039 169.988 89.2172C169.988 84.2306 171.436 80.4539 174.333 77.8872C177.229 75.3206 181.226 74.0372 186.323 74.0372ZM186.323 81.4622C182.729 81.4622 180.933 83.5339 180.933 87.6772V90.8122C180.933 94.9189 182.729 96.9722 186.323 96.9722C189.953 96.9722 191.768 94.9189 191.768 90.8122V87.6772C191.768 83.5339 189.953 81.4622 186.323 81.4622ZM227.352 74.6972V82.1222H221.192V93.1772C221.192 94.4972 221.412 95.4689 221.852 96.0922C222.292 96.6789 223.099 96.9722 224.272 96.9722H227.352V103.407C226.472 103.701 225.336 103.939 223.942 104.122C222.549 104.306 221.339 104.397 220.312 104.397C217.086 104.397 214.592 103.811 212.832 102.637C211.109 101.464 210.247 99.4656 210.247 96.6422V82.1222H206.177V74.6972H210.687L213.052 65.8972H221.192V74.6972H227.352ZM247.446 74.0372C252.543 74.0372 256.539 75.3389 259.436 77.9422C262.369 80.5089 263.836 84.2672 263.836 89.2172C263.836 94.1672 262.369 97.9439 259.436 100.547C256.539 103.114 252.543 104.397 247.446 104.397C242.349 104.397 238.353 103.114 235.456 100.547C232.559 97.9806 231.111 94.2039 231.111 89.2172C231.111 84.2306 232.559 80.4539 235.456 77.8872C238.353 75.3206 242.349 74.0372 247.446 74.0372ZM247.446 81.4622C243.853 81.4622 242.056 83.5339 242.056 87.6772V90.8122C242.056 94.9189 243.853 96.9722 247.446 96.9722C251.076 96.9722 252.891 94.9189 252.891 90.8122V87.6772C252.891 83.5339 251.076 81.4622 247.446 81.4622ZM286.77 73.9822C287.614 73.9822 288.365 74.0922 289.025 74.3122C289.685 74.4956 290.015 74.6056 290.015 74.6422V83.8272H286.495C284.222 83.8272 282.572 84.4139 281.545 85.5872C280.555 86.7606 280.06 88.5022 280.06 90.8122V103.737H269.115V74.6972H278.08L278.795 79.0972C279.455 77.4106 280.5 76.1456 281.93 75.3022C283.36 74.4222 284.974 73.9822 286.77 73.9822Z" fill="#1E90FF"/>
<path d="M4 60.8889C17.2953 48.1549 55.9465 24.7049 104.189 32.7779C113.211 20.5243 138.092 -3.1178 165.442 0.342019C199.63 4.6668 269.905 39.9858 285.575 27.7323C286.999 26.6183 279.877 42.869 283.2 49.3562C286 51 291.5 51.5186 290 73C284.5 50.5 272 53 258.034 51.5186C260.25 49.5965 265.575 48.6354 270.38 48.6354C274.179 48.6354 274.654 44.3106 275.128 41.4274C255.185 40.9469 210.931 40.8508 193.457 44.3106C202.163 39.9858 219.953 29.7505 221.472 23.4075C191.558 15.4787 151.672 -11.1907 114.161 32.7779C124.924 38.5442 150.058 49.9328 164.493 49.3562C137.902 52.9602 91.8437 25.5699 35.3388 46.473C39.1057 47.0857 46.2117 47.9066 48.7255 47.0768C49.5047 46.269 49.8288 45.9149 49.5838 46.473C49.4698 46.7325 49.1692 46.9304 48.7255 47.0768C46.4855 49.3992 40.4853 55.4713 33.4395 54.4018C27.5833 53.9212 13.4966 54.5459 4 60.8889Z" fill="#1E90FF"/>
<path d="M51.0082 54.4018C93.2682 41.4274 168.766 73.1425 208.177 51.5186C151.672 65.8356 82.8219 38.5532 51.0082 54.4018Z" fill="#1E90FF"/>
<path d="M136.263 20.9293C135.228 21.4781 134.192 22.0638 133.154 22.6867C134.116 22.0611 135.155 21.4742 136.263 20.9293C155.589 10.6829 174.778 13.2918 207.228 26.2907C197.731 36.3819 179.213 45.7522 156.421 41.4275C171.141 41.4275 194.597 34.9278 197.256 27.4315C176.113 13.8597 150.475 13.9414 136.263 20.9293Z" fill="#1E90FF"/>
<path d="M225.118 67.0705C235.564 51.2055 244.111 46.3288 274.5 70.7124C255.982 60.3493 242.686 53.7947 225.118 67.0705Z" fill="#1E90FF"/>
</svg>
