<svg width="106" height="65" viewBox="0 0 106 65" fill="none" xmlns="http://www.w3.org/2000/svg">
<path d="M4.736 9.968H42.816V20.528H18.88V26.608H39.36V36.72H18.88V43.44H43.264V54H4.736V9.968Z" fill="#14B5FF"/>
<path d="M88.56 54V38.128C88.56 36.1653 88.624 34.16 88.752 32.112C88.9227 30.0213 89.0933 28.272 89.264 26.864C89.4347 25.456 89.5413 24.56 89.584 24.176H89.328L81.2 54H70.128L61.936 24.24H61.68C61.7227 24.624 61.8293 25.52 62 26.928C62.2133 28.2933 62.4053 30.0213 62.576 32.112C62.7467 34.16 62.832 36.1653 62.832 38.128V54H49.84V9.968H69.808L76.464 35.376H76.72L83.312 9.968H102.576V54H88.56Z" fill="#14B5FF"/>
</svg>
