<svg width="294" height="103" viewBox="0 0 294 103" fill="none" xmlns="http://www.w3.org/2000/svg">
<path d="M4.07 52.8972H36.795V61.9722H16.225V67.1972H33.825V75.8872H16.225V81.6622H37.18V90.7372H4.07V52.8972ZM56.7974 61.0372C60.6841 61.0372 63.9657 61.8072 66.6424 63.3472C69.3557 64.8506 70.7124 67.1972 70.7124 70.3872H60.5374C60.5374 69.3239 60.0607 68.5722 59.1074 68.1322C58.4474 67.7656 57.6224 67.5822 56.6324 67.5822C53.9924 67.5822 52.6724 68.2056 52.6724 69.4522C52.6724 70.1489 53.1307 70.6439 54.0474 70.9372C54.9641 71.2306 56.4674 71.5422 58.5574 71.8722C61.1241 72.2389 63.2691 72.6789 64.9924 73.1922C66.7157 73.6689 68.2191 74.5489 69.5024 75.8322C70.7857 77.0789 71.4274 78.8389 71.4274 81.1122C71.4274 84.8156 70.0341 87.4556 67.2474 89.0322C64.4974 90.6089 60.8857 91.3972 56.4124 91.3972C53.8457 91.3972 51.4257 91.0489 49.1524 90.3522C46.879 89.6189 45.0274 88.5006 43.5974 86.9972C42.1674 85.4939 41.4524 83.5872 41.4524 81.2772H51.6274V81.4972C51.664 82.7439 52.1774 83.6239 53.1674 84.1372C54.194 84.6139 55.2757 84.8522 56.4124 84.8522C59.4557 84.8522 60.9774 84.1372 60.9774 82.7072C60.9774 81.9739 60.5007 81.4422 59.5474 81.1122C58.5941 80.7822 57.0357 80.4339 54.8724 80.0672C52.2691 79.6272 50.1241 79.1506 48.4374 78.6372C46.7874 78.1239 45.339 77.2622 44.0924 76.0522C42.8457 74.8056 42.2224 73.0822 42.2224 70.8822C42.2224 67.3256 43.5607 64.7956 46.2374 63.2922C48.9507 61.7889 52.4707 61.0372 56.7974 61.0372ZM95.9754 61.6972V69.1222H89.8154V80.1772C89.8154 81.4972 90.0354 82.4689 90.4754 83.0922C90.9154 83.6789 91.7221 83.9722 92.8954 83.9722H95.9754V90.4072C95.0954 90.7006 93.9588 90.9389 92.5654 91.1222C91.1721 91.3056 89.9621 91.3972 88.9354 91.3972C85.7088 91.3972 83.2154 90.8106 81.4554 89.6372C79.7321 88.4639 78.8704 86.4656 78.8704 83.6422V69.1222H74.8004V61.6972H79.3104L81.6754 52.8972H89.8154V61.6972H95.9754ZM101.439 58.2872V50.8622H112.384V58.2872H101.439ZM101.439 90.7372V61.6972H112.384V90.7372H101.439ZM152.644 90.7372V77.0972C152.644 75.4106 152.699 73.6872 152.809 71.9272C152.956 70.1306 153.103 68.6272 153.249 67.4172C153.396 66.2072 153.488 65.4372 153.524 65.1072H153.304L146.319 90.7372H136.804L129.764 65.1622H129.544C129.581 65.4922 129.673 66.2622 129.819 67.4722C130.003 68.6456 130.168 70.1306 130.314 71.9272C130.461 73.6872 130.534 75.4106 130.534 77.0972V90.7372H119.369V52.8972H136.529L142.249 74.7322H142.469L148.134 52.8972H164.689V90.7372H152.644ZM186.323 61.0372C191.419 61.0372 195.416 62.3389 198.313 64.9422C201.246 67.5089 202.713 71.2672 202.713 76.2172C202.713 81.1672 201.246 84.9439 198.313 87.5472C195.416 90.1139 191.419 91.3972 186.323 91.3972C181.226 91.3972 177.229 90.1139 174.333 87.5472C171.436 84.9806 169.988 81.2039 169.988 76.2172C169.988 71.2306 171.436 67.4539 174.333 64.8872C177.229 62.3206 181.226 61.0372 186.323 61.0372ZM186.323 68.4622C182.729 68.4622 180.933 70.5339 180.933 74.6772V77.8122C180.933 81.9189 182.729 83.9722 186.323 83.9722C189.953 83.9722 191.768 81.9189 191.768 77.8122V74.6772C191.768 70.5339 189.953 68.4622 186.323 68.4622ZM227.352 61.6972V69.1222H221.192V80.1772C221.192 81.4972 221.412 82.4689 221.852 83.0922C222.292 83.6789 223.099 83.9722 224.272 83.9722H227.352V90.4072C226.472 90.7006 225.336 90.9389 223.942 91.1222C222.549 91.3056 221.339 91.3972 220.312 91.3972C217.086 91.3972 214.592 90.8106 212.832 89.6372C211.109 88.4639 210.247 86.4656 210.247 83.6422V69.1222H206.177V61.6972H210.687L213.052 52.8972H221.192V61.6972H227.352ZM247.446 61.0372C252.543 61.0372 256.539 62.3389 259.436 64.9422C262.369 67.5089 263.836 71.2672 263.836 76.2172C263.836 81.1672 262.369 84.9439 259.436 87.5472C256.539 90.1139 252.543 91.3972 247.446 91.3972C242.349 91.3972 238.353 90.1139 235.456 87.5472C232.559 84.9806 231.111 81.2039 231.111 76.2172C231.111 71.2306 232.559 67.4539 235.456 64.8872C238.353 62.3206 242.349 61.0372 247.446 61.0372ZM247.446 68.4622C243.853 68.4622 242.056 70.5339 242.056 74.6772V77.8122C242.056 81.9189 243.853 83.9722 247.446 83.9722C251.076 83.9722 252.891 81.9189 252.891 77.8122V74.6772C252.891 70.5339 251.076 68.4622 247.446 68.4622ZM286.77 60.9822C287.614 60.9822 288.365 61.0922 289.025 61.3122C289.685 61.4956 290.015 61.6056 290.015 61.6422V70.8272H286.495C284.222 70.8272 282.572 71.4139 281.545 72.5872C280.555 73.7606 280.06 75.5022 280.06 77.8122V90.7372H269.115V61.6972H278.08L278.795 66.0972C279.455 64.4106 280.5 63.1456 281.93 62.3022C283.36 61.4222 284.974 60.9822 286.77 60.9822Z" fill="#14B5FF"/>
<path d="M101.589 26.9407C52.6724 20.3054 16.481 39.5336 3 50C12.6293 44.7866 25.8387 44.3188 31.7767 44.7138C41.4061 45.8987 47.5 37 46.2207 38.197C45.0399 39.3019 36.2704 38.7894 31.7767 38.197C89.0712 21.0164 135.773 43.5289 162.735 40.5667C148.099 41.0407 122.613 31.6802 111.7 26.9407C149.736 -9.19786 190.179 12.7223 220.511 19.239C218.971 24.4525 200.932 32.8651 192.105 36.4197C209.823 33.576 254.695 33.655 274.917 34.0499C274.436 36.4197 273.954 39.9743 270.102 39.9743C265.23 39.9743 259.831 40.7642 257.584 42.344C271.745 43.5616 284.42 41.5069 289.996 60C291.517 42.344 285.941 41.9178 283.102 40.5667C279.732 35.2348 286.954 21.8781 285.509 22.7937C269.621 32.8651 198.364 3.83573 163.698 0.281112C135.966 -2.56258 110.737 16.8693 101.589 26.9407Z" fill="#14B5FF"/>
<path d="M70 39.5C117 36.4197 168.5 56 207.03 42.344C174 59 114.451 39.9329 71 40.5C68 40.5392 50 42 45 50C48.5 42.0707 61.4105 39.8824 70 39.5Z" fill="#14B5FF"/>
<path d="M134.111 17.2022C133.061 17.6533 132.011 18.1346 130.959 18.6467C131.934 18.1324 132.987 17.65 134.111 17.2022C153.707 8.78045 173.164 10.9248 206.067 21.6088C196.438 29.9029 177.661 37.6046 154.551 34.05C169.476 34.05 193.26 28.7078 195.957 22.5465C174.518 11.3915 148.522 11.4587 134.111 17.2022Z" fill="#14B5FF"/>
<path d="M224.207 55.1264C234.8 42.0867 243.466 38.0784 274.28 58.1198C255.503 49.6022 242.022 44.2148 224.207 55.1264Z" fill="#14B5FF"/>
</svg>
