<svg width="302" height="106" viewBox="0 0 302 106" fill="none" xmlns="http://www.w3.org/2000/svg">
<path d="M4.07 55.8972H36.795V64.9722H16.225V70.1972H33.825V78.8872H16.225V84.6622H37.18V93.7372H4.07V55.8972ZM56.7974 64.0372C60.6841 64.0372 63.9657 64.8072 66.6424 66.3472C69.3557 67.8506 70.7124 70.1972 70.7124 73.3872H60.5374C60.5374 72.3239 60.0607 71.5722 59.1074 71.1322C58.4474 70.7656 57.6224 70.5822 56.6324 70.5822C53.9924 70.5822 52.6724 71.2056 52.6724 72.4522C52.6724 73.1489 53.1307 73.6439 54.0474 73.9372C54.9641 74.2306 56.4674 74.5422 58.5574 74.8722C61.1241 75.2389 63.2691 75.6789 64.9924 76.1922C66.7157 76.6689 68.2191 77.5489 69.5024 78.8322C70.7857 80.0789 71.4274 81.8389 71.4274 84.1122C71.4274 87.8156 70.0341 90.4556 67.2474 92.0322C64.4974 93.6089 60.8857 94.3972 56.4124 94.3972C53.8457 94.3972 51.4257 94.0489 49.1524 93.3522C46.879 92.6189 45.0274 91.5006 43.5974 89.9972C42.1674 88.4939 41.4524 86.5872 41.4524 84.2772H51.6274V84.4972C51.664 85.7439 52.1774 86.6239 53.1674 87.1372C54.194 87.6139 55.2757 87.8522 56.4124 87.8522C59.4557 87.8522 60.9774 87.1372 60.9774 85.7072C60.9774 84.9739 60.5007 84.4422 59.5474 84.1122C58.5941 83.7822 57.0357 83.4339 54.8724 83.0672C52.2691 82.6272 50.1241 82.1506 48.4374 81.6372C46.7874 81.1239 45.339 80.2622 44.0924 79.0522C42.8457 77.8056 42.2224 76.0822 42.2224 73.8822C42.2224 70.3256 43.5607 67.7956 46.2374 66.2922C48.9507 64.7889 52.4707 64.0372 56.7974 64.0372ZM95.9754 64.6972V72.1222H89.8154V83.1772C89.8154 84.4972 90.0354 85.4689 90.4754 86.0922C90.9154 86.6789 91.7221 86.9722 92.8954 86.9722H95.9754V93.4072C95.0954 93.7006 93.9588 93.9389 92.5654 94.1222C91.1721 94.3056 89.9621 94.3972 88.9354 94.3972C85.7088 94.3972 83.2154 93.8106 81.4554 92.6372C79.7321 91.4639 78.8704 89.4656 78.8704 86.6422V72.1222H74.8004V64.6972H79.3104L81.6754 55.8972H89.8154V64.6972H95.9754ZM101.439 61.2872V53.8622H112.384V61.2872H101.439ZM101.439 93.7372V64.6972H112.384V93.7372H101.439ZM152.644 93.7372V80.0972C152.644 78.4106 152.699 76.6872 152.809 74.9272C152.956 73.1306 153.103 71.6272 153.249 70.4172C153.396 69.2072 153.488 68.4372 153.524 68.1072H153.304L146.319 93.7372H136.804L129.764 68.1622H129.544C129.581 68.4922 129.673 69.2622 129.819 70.4722C130.003 71.6456 130.168 73.1306 130.314 74.9272C130.461 76.6872 130.534 78.4106 130.534 80.0972V93.7372H119.369V55.8972H136.529L142.249 77.7322H142.469L148.134 55.8972H164.689V93.7372H152.644ZM186.323 64.0372C191.419 64.0372 195.416 65.3389 198.313 67.9422C201.246 70.5089 202.713 74.2672 202.713 79.2172C202.713 84.1672 201.246 87.9439 198.313 90.5472C195.416 93.1139 191.419 94.3972 186.323 94.3972C181.226 94.3972 177.229 93.1139 174.333 90.5472C171.436 87.9806 169.988 84.2039 169.988 79.2172C169.988 74.2306 171.436 70.4539 174.333 67.8872C177.229 65.3206 181.226 64.0372 186.323 64.0372ZM186.323 71.4622C182.729 71.4622 180.933 73.5339 180.933 77.6772V80.8122C180.933 84.9189 182.729 86.9722 186.323 86.9722C189.953 86.9722 191.768 84.9189 191.768 80.8122V77.6772C191.768 73.5339 189.953 71.4622 186.323 71.4622ZM227.352 64.6972V72.1222H221.192V83.1772C221.192 84.4972 221.412 85.4689 221.852 86.0922C222.292 86.6789 223.099 86.9722 224.272 86.9722H227.352V93.4072C226.472 93.7006 225.336 93.9389 223.942 94.1222C222.549 94.3056 221.339 94.3972 220.312 94.3972C217.086 94.3972 214.592 93.8106 212.832 92.6372C211.109 91.4639 210.247 89.4656 210.247 86.6422V72.1222H206.177V64.6972H210.687L213.052 55.8972H221.192V64.6972H227.352ZM247.446 64.0372C252.543 64.0372 256.539 65.3389 259.436 67.9422C262.369 70.5089 263.836 74.2672 263.836 79.2172C263.836 84.1672 262.369 87.9439 259.436 90.5472C256.539 93.1139 252.543 94.3972 247.446 94.3972C242.349 94.3972 238.353 93.1139 235.456 90.5472C232.559 87.9806 231.111 84.2039 231.111 79.2172C231.111 74.2306 232.559 70.4539 235.456 67.8872C238.353 65.3206 242.349 64.0372 247.446 64.0372ZM247.446 71.4622C243.853 71.4622 242.056 73.5339 242.056 77.6772V80.8122C242.056 84.9189 243.853 86.9722 247.446 86.9722C251.076 86.9722 252.891 84.9189 252.891 80.8122V77.6772C252.891 73.5339 251.076 71.4622 247.446 71.4622ZM286.77 63.9822C287.614 63.9822 288.365 64.0922 289.025 64.3122C289.685 64.4956 290.015 64.6056 290.015 64.6422V73.8272H286.495C284.222 73.8272 282.572 74.4139 281.545 75.5872C280.555 76.7606 280.06 78.5022 280.06 80.8122V93.7372H269.115V64.6972H278.08L278.795 69.0972C279.455 67.4106 280.5 66.1456 281.93 65.3022C283.36 64.4222 284.974 63.9822 286.77 63.9822Z" fill="#14B5FF"/>
<path d="M0 49.9426C14 39.4978 54.7 20.2636 105.5 26.8852C115 16.8346 141.2 -2.5573 170 0.280533C206 3.82782 280 32.7974 296.5 22.7467C298 21.833 290.5 35.1622 294 40.4832C298 42.0597 304.6 50.7703 299 73C299.5 63.3435 293.9 43.6757 267.5 42.2568C269.833 40.6802 275.44 39.892 280.5 39.892C284.5 39.892 285 36.3447 285.5 33.9798C264.5 33.5857 217.9 33.5068 199.5 36.3447C208.667 32.7974 227.4 24.4021 229 19.1994C197.5 12.6961 155.5 -9.17891 116 26.8852C127.333 31.6149 153.8 40.9561 169 40.4832C141 43.4392 92.5 20.9731 33 38.1183C36.9666 38.6208 44.4492 39.2942 47.0962 38.6136C47.9167 37.951 48.2581 37.6606 48 38.1183C47.88 38.3312 47.5634 38.4935 47.0962 38.6136C44.7375 40.5184 38.4192 45.4989 31 44.6217C24.8333 44.2275 10 44.7399 0 49.9426Z" fill="#14B5FF"/>
<path d="M49.5 44.6217C94 33.9798 173.5 59.9933 215 42.2568C155.5 54 83 31.6222 49.5 44.6217Z" fill="#14B5FF"/>
<path d="M139.273 17.1667C138.183 17.6169 137.093 18.0973 136 18.6082C137.013 18.095 138.107 17.6136 139.273 17.1667C159.624 8.76234 179.83 10.9023 214 21.5643C204 29.8413 184.5 37.5271 160.5 33.9798C176 33.9798 200.7 28.6486 203.5 22.5C181.236 11.368 154.239 11.4351 139.273 17.1667Z" fill="#14B5FF"/>
<path d="M226 55.0129C237 42 246 38 278 58C258.5 49.5 244.5 44.1237 226 55.0129Z" fill="#14B5FF"/>
</svg>
