<svg width="352" height="105" viewBox="0 0 352 105" fill="none" xmlns="http://www.w3.org/2000/svg">
<path d="M48.1709 54.25H80.8959V63.325H60.3259V68.55H77.9259V77.24H60.3259V83.015H81.2809V92.09H48.1709V54.25ZM100.898 62.39C104.785 62.39 108.067 63.16 110.743 64.7C113.457 66.2033 114.813 68.55 114.813 71.74H104.638C104.638 70.6766 104.162 69.925 103.208 69.485C102.548 69.1183 101.723 68.935 100.733 68.935C98.0933 68.935 96.7733 69.5583 96.7733 70.805C96.7733 71.5016 97.2316 71.9966 98.1483 72.29C99.065 72.5833 100.568 72.895 102.658 73.225C105.225 73.5916 107.37 74.0316 109.093 74.545C110.817 75.0216 112.32 75.9016 113.603 77.185C114.887 78.4316 115.528 80.1916 115.528 82.465C115.528 86.1683 114.135 88.8083 111.348 90.385C108.598 91.9616 104.987 92.75 100.513 92.75C97.9466 92.75 95.5266 92.4016 93.2533 91.705C90.98 90.9716 89.1283 89.8533 87.6983 88.35C86.2683 86.8466 85.5533 84.94 85.5533 82.63H95.7283V82.85C95.765 84.0966 96.2783 84.9766 97.2683 85.49C98.295 85.9666 99.3766 86.205 100.513 86.205C103.557 86.205 105.078 85.49 105.078 84.06C105.078 83.3266 104.602 82.795 103.648 82.465C102.695 82.135 101.137 81.7866 98.9733 81.42C96.37 80.98 94.225 80.5033 92.5383 79.99C90.8883 79.4766 89.44 78.615 88.1933 77.405C86.9466 76.1583 86.3233 74.435 86.3233 72.235C86.3233 68.6783 87.6616 66.1483 90.3383 64.645C93.0516 63.1416 96.5716 62.39 100.898 62.39ZM140.076 63.05V70.475H133.916V81.53C133.916 82.85 134.136 83.8216 134.576 84.445C135.016 85.0316 135.823 85.325 136.996 85.325H140.076V91.76C139.196 92.0533 138.06 92.2916 136.666 92.475C135.273 92.6583 134.063 92.75 133.036 92.75C129.81 92.75 127.316 92.1633 125.556 90.99C123.833 89.8166 122.971 87.8183 122.971 84.995V70.475H118.901V63.05H123.411L125.776 54.25H133.916V63.05H140.076ZM145.54 59.64V52.215H156.485V59.64H145.54ZM145.54 92.09V63.05H156.485V92.09H145.54ZM196.745 92.09V78.45C196.745 76.7633 196.8 75.04 196.91 73.28C197.057 71.4833 197.204 69.98 197.35 68.77C197.497 67.56 197.589 66.79 197.625 66.46H197.405L190.42 92.09H180.905L173.865 66.515H173.645C173.682 66.845 173.774 67.615 173.92 68.825C174.104 69.9983 174.269 71.4833 174.415 73.28C174.562 75.04 174.635 76.7633 174.635 78.45V92.09H163.47V54.25H180.63L186.35 76.085H186.57L192.235 54.25H208.79V92.09H196.745ZM230.424 62.39C235.52 62.39 239.517 63.6916 242.414 66.295C245.347 68.8616 246.814 72.62 246.814 77.57C246.814 82.52 245.347 86.2966 242.414 88.9C239.517 91.4666 235.52 92.75 230.424 92.75C225.327 92.75 221.33 91.4666 218.434 88.9C215.537 86.3333 214.089 82.5566 214.089 77.57C214.089 72.5833 215.537 68.8066 218.434 66.24C221.33 63.6733 225.327 62.39 230.424 62.39ZM230.424 69.815C226.83 69.815 225.034 71.8866 225.034 76.03V79.165C225.034 83.2716 226.83 85.325 230.424 85.325C234.054 85.325 235.869 83.2716 235.869 79.165V76.03C235.869 71.8866 234.054 69.815 230.424 69.815ZM271.453 63.05V70.475H265.293V81.53C265.293 82.85 265.513 83.8216 265.953 84.445C266.393 85.0316 267.2 85.325 268.373 85.325H271.453V91.76C270.573 92.0533 269.437 92.2916 268.043 92.475C266.65 92.6583 265.44 92.75 264.413 92.75C261.187 92.75 258.693 92.1633 256.933 90.99C255.21 89.8166 254.348 87.8183 254.348 84.995V70.475H250.278V63.05H254.788L257.153 54.25H265.293V63.05H271.453ZM291.547 62.39C296.643 62.39 300.64 63.6916 303.537 66.295C306.47 68.8616 307.937 72.62 307.937 77.57C307.937 82.52 306.47 86.2966 303.537 88.9C300.64 91.4666 296.643 92.75 291.547 92.75C286.45 92.75 282.453 91.4666 279.557 88.9C276.66 86.3333 275.212 82.5566 275.212 77.57C275.212 72.5833 276.66 68.8066 279.557 66.24C282.453 63.6733 286.45 62.39 291.547 62.39ZM291.547 69.815C287.953 69.815 286.157 71.8866 286.157 76.03V79.165C286.157 83.2716 287.953 85.325 291.547 85.325C295.177 85.325 296.992 83.2716 296.992 79.165V76.03C296.992 71.8866 295.177 69.815 291.547 69.815ZM330.871 62.335C331.715 62.335 332.466 62.445 333.126 62.665C333.786 62.8483 334.116 62.9583 334.116 62.995V72.18H330.596C328.323 72.18 326.673 72.7666 325.646 73.94C324.656 75.1133 324.161 76.855 324.161 79.165V92.09H313.216V63.05H322.181L322.896 67.45C323.556 65.7633 324.601 64.4983 326.031 63.655C327.461 62.775 329.075 62.335 330.871 62.335Z" fill="#14B5FF"/>
<path d="M34.6009 52.59C31.4342 55.9233 25.4009 63.29 26.6009 66.09C28.1009 69.59 33.1009 69.09 32.1009 82.09C33.7676 85.59 35.3009 92.39 28.1009 91.59C14.1009 92.59 -1.3991 95.09 0.100916 78.09C5.26758 78.4233 16.3009 79.69 19.1009 82.09C10.6009 80.59 2.60092 85.09 12.1009 88.09H22.6009C27.2676 85.7567 32.3009 80.09 15.1009 76.09C12.2676 75.7567 5.5009 75.09 1.1009 75.09C1.26722 72.7617 1.30079 66.9154 0.108694 62.1212C0.530014 63.6378 7.66622 67.0762 17.1009 65.09C22.4342 60.4233 33.4009 51.39 34.6009 52.59Z" fill="#14B5FF"/>
<path fill-rule="evenodd" clip-rule="evenodd" d="M292.101 41.09C315.301 28.29 329.101 47.4233 333.101 58.5899C334.301 53.3899 330.934 44.09 329.101 40.09C340.701 34.09 348.601 28.9233 351.101 27.09C350.701 25.89 318.601 20.09 266.601 22.09C269.601 20.09 288.101 18.9233 295.101 19.09C184.916 -11.9145 164.829 -1.055 121.105 22.5835C118.996 23.7237 116.833 24.8936 114.601 26.09C31.4186 25.1393 11.4984 47.2341 3.72102 55.8606C3.31732 56.3084 2.94633 56.7199 2.60092 57.09C7.45174 54.9052 11.5279 54.9361 15.7108 54.9677C23.1692 55.0242 30.967 55.0832 44.1009 42.59C45.3009 46.19 43.6009 51.7566 42.6009 54.09C57.6009 35.09 76.6009 37.59 86.1009 42.09C111.454 34.1744 134.433 37.9678 157.15 41.718L157.151 41.7182C159.97 42.1836 162.786 42.6483 165.601 43.09C144.101 36.09 126.101 34.09 107.601 32.59C143.372 28.5335 180.503 32.9085 215.984 37.0893C228.611 38.577 241.028 40.0401 253.101 41.09C224.301 35.09 179.434 30.9233 160.601 29.59C181.801 25.59 209.101 25.59 220.101 26.09L212.101 31.09C238.101 31.89 276.268 38.09 292.101 41.09ZM244.101 15.09C218.101 5.08996 167.601 -2.91001 128.601 25.59C140.601 26.09 226.601 24.59 226.601 24.59C233.801 18.19 241.268 15.59 244.101 15.09ZM13.1009 51.59C29.1009 41.59 39.4342 39.4233 42.6009 39.59C36.4654 46.1613 28.9393 51.0457 27.001 52.3037C26.8465 52.404 26.7275 52.4812 26.6475 52.5344C26.537 52.1506 17.7112 51.749 13.1009 51.59Z" fill="#14B5FF"/>
</svg>
